<svg width="26" height="26" viewBox="0 0 26 26" fill="none" xmlns="http://www.w3.org/2000/svg">
<g clip-path="url(#clip0_6_32)">
<path d="M26 12.2514V26H13.0195C10.4834 25.9988 8.00304 25.2558 5.88393 23.8626C3.76481 22.4693 2.09949 20.4867 1.09309 18.1588C0.0866908 15.8309 -0.216836 13.2595 0.219896 10.7613C0.656628 8.26311 1.81454 5.9472 3.55102 4.09884C5.2875 2.25048 7.5267 0.950399 9.99281 0.358733C12.4589 -0.232933 15.0443 -0.0903452 17.4303 0.768934C19.8164 1.62821 21.8991 3.16666 23.4218 5.19477C24.9444 7.22288 25.8407 9.65208 26 12.1832V12.2514ZM14.0833 7.58333H7.58333V9.75H14.0833V7.58333ZM18.4167 11.9167H7.58333V14.0833H18.4167V11.9167ZM18.4167 16.25H7.58333V18.4167H18.4167V16.25Z" fill="#9A9A9A"/>
</g>
<defs>
<clipPath id="clip0_6_32">
<rect width="26" height="26" fill="white"/>
</clipPath>
</defs>
</svg>
