<svg width="25" height="25" viewBox="0 0 25 25" fill="none" xmlns="http://www.w3.org/2000/svg">
<g clip-path="url(#clip0_6_36)">
<path d="M12.5 16.6667C11.6759 16.6667 10.8703 16.4223 10.1851 15.9645C9.49992 15.5066 8.96587 14.8559 8.6505 14.0945C8.33514 13.3332 8.25262 12.4954 8.41339 11.6871C8.57417 10.8789 8.971 10.1364 9.55372 9.55372C10.1364 8.971 10.8789 8.57417 11.6871 8.4134C12.4954 8.25262 13.3332 8.33514 14.0945 8.6505C14.8559 8.96587 15.5066 9.49992 15.9645 10.1851C16.4223 10.8703 16.6667 11.6759 16.6667 12.5C16.6667 13.6051 16.2277 14.6649 15.4463 15.4463C14.6649 16.2277 13.6051 16.6667 12.5 16.6667ZM5.91979 16.6667H1.04167C0.765399 16.6667 0.500448 16.5569 0.305097 16.3616C0.109747 16.1662 0 15.9013 0 15.625C0.00987067 14.1293 0.55388 12.6863 1.53391 11.5563C2.51394 10.4264 3.86549 9.68378 5.34479 9.4625C5.51669 9.43842 5.69188 9.45767 5.85444 9.51851C6.01701 9.57936 6.16179 9.67986 6.27564 9.81088C6.38948 9.94191 6.46878 10.0993 6.50633 10.2688C6.54387 10.4382 6.53848 10.6144 6.49062 10.7813C6.331 11.3402 6.25001 11.9187 6.25 12.5C6.2503 13.4268 6.45891 14.3417 6.86042 15.1771C6.93593 15.3356 6.97014 15.5107 6.95985 15.686C6.94956 15.8614 6.89511 16.0312 6.80157 16.1799C6.70802 16.3285 6.57842 16.4511 6.4248 16.5362C6.27118 16.6213 6.09854 16.6662 5.92292 16.6667H5.91979ZM17.7083 25H7.29167C7.0154 25 6.75045 24.8903 6.5551 24.6949C6.35975 24.4996 6.25 24.2346 6.25 23.9583C6.25 22.3007 6.90848 20.711 8.08058 19.5389C9.25268 18.3668 10.8424 17.7083 12.5 17.7083C14.1576 17.7083 15.7473 18.3668 16.9194 19.5389C18.0915 20.711 18.75 22.3007 18.75 23.9583C18.75 24.2346 18.6403 24.4996 18.4449 24.6949C18.2496 24.8903 17.9846 25 17.7083 25ZM18.75 8.33333C17.9259 8.33333 17.1203 8.08896 16.4351 7.63113C15.7499 7.17329 15.2159 6.52254 14.9005 5.76118C14.5851 4.99982 14.5026 4.16205 14.6634 3.35379C14.8242 2.54554 15.221 1.80311 15.8037 1.22039C16.3864 0.637672 17.1289 0.240835 17.9371 0.0800632C18.7454 -0.0807085 19.5832 0.00180534 20.3445 0.31717C21.1059 0.632536 21.7566 1.16659 22.2145 1.85179C22.6723 2.537 22.9167 3.34258 22.9167 4.16667C22.9167 5.27174 22.4777 6.33155 21.6963 7.11295C20.9149 7.89435 19.8551 8.33333 18.75 8.33333ZM6.25 8.33333C5.42591 8.33333 4.62033 8.08896 3.93512 7.63113C3.24992 7.17329 2.71587 6.52254 2.4005 5.76118C2.08514 4.99982 2.00262 4.16205 2.16339 3.35379C2.32417 2.54554 2.721 1.80311 3.30372 1.22039C3.88644 0.637672 4.62887 0.240835 5.43712 0.0800632C6.24538 -0.0807085 7.08316 0.00180534 7.84451 0.31717C8.60587 0.632536 9.25662 1.16659 9.71446 1.85179C10.1723 2.537 10.4167 3.34258 10.4167 4.16667C10.4167 5.27174 9.97768 6.33155 9.19628 7.11295C8.41488 7.89435 7.35507 8.33333 6.25 8.33333ZM23.9583 16.6667H19.0802C18.9046 16.6662 18.7319 16.6213 18.5783 16.5362C18.4247 16.4511 18.2951 16.3285 18.2016 16.1799C18.108 16.0312 18.0536 15.8614 18.0433 15.686C18.033 15.5107 18.0672 15.3356 18.1427 15.1771C18.5431 14.3415 18.7507 13.4266 18.75 12.5C18.7483 11.9184 18.6656 11.34 18.5042 10.7813C18.456 10.6139 18.4506 10.4372 18.4884 10.2672C18.5262 10.0973 18.606 9.93951 18.7205 9.80834C18.835 9.67717 18.9805 9.57679 19.1438 9.51637C19.3071 9.45596 19.4829 9.43744 19.6552 9.4625C21.1345 9.68378 22.4861 10.4264 23.4661 11.5563C24.4461 12.6863 24.9901 14.1293 25 15.625C25 15.9013 24.8903 16.1662 24.6949 16.3616C24.4996 16.5569 24.2346 16.6667 23.9583 16.6667Z" fill="#9A9A9A"/>
</g>
<defs>
<clipPath id="clip0_6_36">
<rect width="25" height="25" fill="white"/>
</clipPath>
</defs>
</svg>
